<svg id="圖層_1" data-name="圖層 1" xmlns="http://www.w3.org/2000/svg" viewBox="0 0 320 555.52"><defs><style>.cls-1{fill:#edae49;}.cls-2{fill:#fff;}</style></defs><path class="cls-1" d="M67.5,100.52A92.5,92.5,0,1,1,160,193,92.5,92.5,0,0,1,67.5,100.52Zm76.5,327v96a32,32,0,0,1-64,0V331.32l-20.9,33.2a32,32,0,0,1-54.2-34l39.9-63.3a136.08,136.08,0,0,1,230.4-.1l39.9,63.4a32,32,0,0,1-54.1,34.1l-21-33.3v192.2a32,32,0,0,1-64,0v-96Z"/><path class="cls-2" d="M139.24,263a6.43,6.43,0,0,1,6.33-5.28h38.57a6.43,6.43,0,1,1,0,12.85H150.93l-4.1,22.5h22.84a27.33,27.33,0,0,1,0,54.65H152.9a20.87,20.87,0,0,1-18.68-11.56l-.83-1.64a6.42,6.42,0,0,1,11.49-5.75l.83,1.65a8,8,0,0,0,7.19,4.44h16.77a14.47,14.47,0,1,0,0-28.93H139.14a6.43,6.43,0,0,1-6.33-7.57Z"/></svg>