<svg id="圖層_1" data-name="圖層 1" xmlns="http://www.w3.org/2000/svg" viewBox="0 0 320 555.52"><defs><style>.cls-1{fill:#d1495b;}</style></defs><circle class="cls-1" cx="157.7" cy="101.82" r="92.5"/><path class="cls-1" d="M315.1,330.52l-39.9-63.4a136.08,136.08,0,0,0-230.4.1L4.9,330.52a32,32,0,0,0,54.2,34L80,331.32v192.2a32,32,0,0,0,64,0v-96h32v96a32,32,0,0,0,64,0V331.32l21,33.3a32,32,0,0,0,54.1-34.1ZM179.82,348.74H141.25a6.43,6.43,0,1,1,0-12.85h12.86v-58.7l-9.28,6.2a6.43,6.43,0,0,1-7.15-10.7L157,259.83a6.44,6.44,0,0,1,10,5.34v70.72h12.85a6.43,6.43,0,1,1,0,12.85Z"/></svg>