<svg id="圖層_1" data-name="圖層 1" xmlns="http://www.w3.org/2000/svg" viewBox="0 0 320 555.52"><defs><style>.cls-1{fill:#edae49;}</style></defs><circle class="cls-1" cx="160" cy="100.52" r="92.5"/><path class="cls-1" d="M315.1,330.52l-39.9-63.4a136.08,136.08,0,0,0-230.4.1L4.9,330.52a32,32,0,0,0,54.2,34L80,331.32v192.2a32,32,0,0,0,64,0v-96h32v96a32,32,0,0,0,64,0V331.32l21,33.3a32,32,0,0,0,54.1-34.1ZM164,349.13H148.2a22.48,22.48,0,0,1-20.11-12.43l-.38-.77a6.42,6.42,0,1,1,11.49-5.74l.38.76a9.63,9.63,0,0,0,8.62,5.32H164a14.47,14.47,0,1,0,0-28.93H143.1a6.42,6.42,0,0,1-4.34-11.16L165.14,272H133.46a6.43,6.43,0,1,1,0-12.86h48.21A6.43,6.43,0,0,1,186,270.3l-26.38,24.19H164a27.32,27.32,0,0,1,0,54.64Z"/></svg>