<?xml version="1.0" encoding="utf-8"?>
<!-- Generator: Adobe Illustrator 25.0.0, SVG Export Plug-In . SVG Version: 6.00 Build 0)  -->
<svg version="1.1" id="圖層_1" xmlns="http://www.w3.org/2000/svg" xmlns:xlink="http://www.w3.org/1999/xlink" x="0px" y="0px"
	 viewBox="0 0 320 555.5" style="enable-background:new 0 0 320 555.5;" xml:space="preserve">
<style type="text/css">
	.st0{fill:#D1495B;stroke:#FFFFFF;stroke-miterlimit:10;}
</style>
<path class="st0" d="M315.1,330.5l-39.9-63.4c-40-63.6-124-82.7-187.7-42.7c-17.3,10.9-31.9,25.5-42.7,42.8L4.9,330.5
	c-9,15.2-4,34.8,11.2,43.9c14.7,8.7,33.6,4.4,43-9.9L80,331.3v192.2c0,17.7,14.3,32,32,32s32-14.3,32-32v-96h32v96
	c0,17.7,14.3,32,32,32s32-14.3,32-32V331.3l21,33.3c10,14.6,29.9,18.3,44.5,8.3C319.3,363.4,323.4,345,315.1,330.5z M192,326.3h-6.4
	v16.1c0,3.6-2.9,6.4-6.4,6.4c-3.6,0-6.4-2.9-6.4-6.4v-16.1h-45c-2.2,0-4.3-1.1-5.4-3c-1.2-1.9-1.3-4.2-0.4-6.2l25.7-54.6
	c1.5-3.2,5.4-4.6,8.6-3.1c3.2,1.5,4.6,5.4,3.1,8.6l-21.4,45.5h34.9v-28.9c0-3.6,2.9-6.4,6.4-6.4c3.6,0,6.4,2.9,6.4,6.4v28.9h6.4
	c3.5,0.1,6.3,3.1,6.2,6.7C198,323.5,195.4,326.2,192,326.3z"/>
<circle class="st0" cx="160" cy="100.5" r="92.5"/>
</svg>
