<svg id="圖層_1" data-name="圖層 1" xmlns="http://www.w3.org/2000/svg" viewBox="0 0 320 555.52"><defs><style>.cls-1{fill:#00798c;}</style></defs><circle class="cls-1" cx="160" cy="100.52" r="92.5"/><path class="cls-1" d="M315.1,330.52l-39.9-63.4a136.08,136.08,0,0,0-230.4.1L4.9,330.52a32,32,0,0,0,54.2,34L80,331.32v192.2a32,32,0,0,0,64,0v-96h32v96a32,32,0,0,0,64,0V331.32l21,33.3a32,32,0,0,0,54.1-34.1ZM188.82,347.94H137.39a6.45,6.45,0,0,1-4.56-11l38.35-38.33a16.29,16.29,0,1,0-23-23l-6.21,6.18a6.43,6.43,0,1,1-9.1-9.1l6.21-6.18a29.15,29.15,0,1,1,41.24,41.22l-27.36,27.38h35.9a6.43,6.43,0,0,1,0,12.86Z"/></svg>