<svg id="圖層_1" data-name="圖層 1" xmlns="http://www.w3.org/2000/svg" viewBox="0 0 320 555.52"><defs><style>.cls-1{fill:#30638e;stroke:#fff;stroke-miterlimit:10;}</style></defs><path class="cls-1" d="M315.1,330.52l-39.9-63.4a136.08,136.08,0,0,0-230.4.1L4.9,330.52a32,32,0,0,0,54.2,34L80,331.32v192.2a32,32,0,0,0,64,0v-96h32v96a32,32,0,0,0,64,0V331.32l21,33.3a32,32,0,0,0,54.1-34.1ZM192,326.34h-6.43v16.07a6.43,6.43,0,0,1-12.86,0V326.34h-45a6.4,6.4,0,0,1-5.45-3,6.49,6.49,0,0,1-.38-6.19l25.73-54.65A6.43,6.43,0,1,1,159.26,268l-21.41,45.48h34.87V284.56a6.43,6.43,0,0,1,12.86,0v28.93H192a6.43,6.43,0,0,1,0,12.85Z"/><circle class="cls-1" cx="160" cy="100.52" r="92.5"/></svg>