<svg height="512" viewBox="0 0 512 512" width="512" xmlns="http://www.w3.org/2000/svg"><g id="Flat"><path d="m92 312a12 12 0 0 1 12 12v12a0 0 0 0 1 0 0h-24a0 0 0 0 1 0 0v-12a12 12 0 0 1 12-12z" fill="#e37066"/><path d="m204 496v-96h-53.24c22.21-60.88 64.54-82.61 91.79-97.16 8.84009-4.72 16.09009-8.68 20.55981-12.97l36.89019 22.13 36.46-21.88c5.52 5.36 15.75 8.94 28.3501 13.33 44.68013 15.58 119.1899 41.32 119.1899 192.55z" fill="#e7f2da"/><path d="m284 320 8 24h16l8-24-16-8z" fill="#e34e03"/><path d="m316 408-16 40-16-40 8-64h16z" fill="#e34e03"/><path d="m263.10986 289.87 36.89014 22.13-16 24-41.44995-33.16c8.84009-4.72 16.09009-8.68 20.55981-12.97z" fill="#b1cdb4"/><path d="m364.81006 303.45-48.81006 32.55-16-24 36.46-21.88c5.52 5.36 15.75 8.94 28.35006 13.33z" fill="#b1cdb4"/><path d="m204 496v-24l-53.24-72a177.483 177.483 0 0 1 12.26-26.71c1.3501-2.38 2.74-4.68 4.1499-6.9a155.27525 155.27525 0 0 1 42.8501-44.34c12.8999-9.03 25.37988-15.34 35.43994-20.76l54.54006 122.71 60.93994-121.89c9.3501 3.29 20.27 6.9 31.68018 12.04 42.35988 19.08 91.37988 59.18 91.37988 181.85z" fill="#0e638b"/><path d="m380 352h-24l16 24-72 88-72-88 16-24h-24l-9.98-29.95c12.8999-9.03 25.37988-15.34 35.43994-20.76l54.54006 122.71 60.93994-121.89c9.3501 3.29 20.27 6.9 31.68018 12.04z" fill="#0a4b69"/><path d="m400 400v96h-8v-96a4 4 0 0 1 8 0z" fill="#0a4b69"/><path d="m221.73 418.27-17.73 53.73q-4.0199 0-8-.37a87.02014 87.02014 0 0 1 -47.01-19.24l-49.74-40.62-.06006-.05c-4.01-2.89-5.7-8.92-3.18994-16.23l2.67993-5.14 41.5-34.55z" fill="#0e638b"/><path d="m121.58008 404.25c-8.61011 9.81-17.29 11.12-22.33008 7.52l-.06006-.05c-4.01-2.89-5.7-8.92-3.18994-16.23l2.67993-5.14 20.90864-40.01014 20.59136 5.46014c10.91016 8.54-3.15993 30.88-18.59985 48.45z" fill="#0a4b69"/><path d="m197.60986 394.75a4.01665 4.01665 0 0 1 -5.60986.74l-28.98-22.2c1.3501-2.38 2.74-4.68 4.1499-6.9l29.7002 22.75a4.00723 4.00723 0 0 1 .73976 5.61z" fill="#0a4b69"/><path d="m112 384-14.26461-14.26461a49.70659 49.70659 0 0 0 -23.09223-13.0746 49.70655 49.70655 0 0 1 -29.30275-20.6502l-10.4433-15.66492a10.51372 10.51372 0 0 1 8.74794-16.34567 10.51371 10.51371 0 0 1 7.43432 3.0794l16.23431 16.23431a16 16 0 0 0 11.31374 4.68629h19.84687a16 16 0 0 1 9.72978 3.29837l16.58121 12.70163z" fill="#f5a971"/><path d="m121.58008 404.25a37.16425 37.16425 0 0 1 -3.3501 3.39l-10.73-7.15-14.68994-9.8 31.97996-46.69 15.38989 11.8c10.9102 8.54-3.15989 30.88-18.59981 48.45z" fill="#e7f2da"/><path d="m268 280a24.015 24.015 0 0 0 -1.58008-8.74c-9.07983-23.82-54.41992-28.87-54.41992-79.26v-88c0-24 0-80 100-80 92 0 100 56 100 80v64c0 44.35-68.3 68.21-78.68994 103.14a31.296 31.296 0 0 0 -1.3 7.88c0 .32-.01.65-.01.98z" fill="#f57a08"/><path d="m412 152.97v11.54a16.96849 16.96849 0 0 1 -10.66992 15.76l-26.55 10.62c-15.1001 49.79-42.17993 56-42.77 88.04v.09c0 .32-.01.65-.01.98a14.13574 14.13574 0 0 0 4.33008 10.2l-36.33016 21.8-37.54-22.52c3.54-2.77 5.54-5.81 5.54-9.48 0-32-56-32-56-88v-88c4.25-47.75 35.75-43.75 32-24s8 24 32 24 48-6.85 48-24c0-24 32-16 32 16v48c0 18.79 21.18994 19.93 23.75 3.41a11.63722 11.63722 0 0 1 3.28-6.44 16.97 16.97 0 0 1 28.97 12z" fill="#f5a971"/><path d="m284 188h-4a16 16 0 0 1 0-32h4a4 4 0 0 1 0 8h-4a8 8 0 0 0 0 16h4a4 4 0 0 1 0 8z" fill="#e37066"/><circle cx="324" cy="152" fill="#0a4b69" r="8"/><circle cx="244" cy="152" fill="#0a4b69" r="8"/><path d="m226.81524 129.17384 5.664-5.673a8 8 0 0 1 8.18877-1.938l18.37171 6.11738a4.26906 4.26906 0 0 1 1.67487 1.03661 4.2692 4.2692 0 0 1 -3.02359 7.28317h-28.045a4 4 0 0 1 -2.83076-6.82616z" fill="#f57a08"/><path d="m341.18476 129.17384-5.664-5.673a8 8 0 0 0 -8.18877-1.938l-18.37171 6.11738a4.26906 4.26906 0 0 0 -1.67487 1.03661 4.2692 4.2692 0 0 0 3.02364 7.28317h28.045a4 4 0 0 0 2.83071-6.82616z" fill="#f57a08"/><path d="m204 428v44q-4.0199 0-8-.37v-43.63a4 4 0 0 1 8 0z" fill="#0a4b69"/><circle cx="104" cy="216" fill="#b1cdb4" r="80"/><path d="m144 254.47v9.53h-80v-9.53a29.76758 29.76758 0 0 1 19.40991-27.91c.72-.27 1.45-.52 2.2-.73a8.81261 8.81261 0 0 0 6.36009-7.84c.02-.21.03-.42.03-.64a9.07382 9.07382 0 0 0 -.8-3.72 8.24278 8.24278 0 0 0 -2.30981-3 23.92677 23.92677 0 0 1 -8.89019-18.63v-7.45a24.69514 24.69514 0 0 1 3.32007-12.4 23.90084 23.90084 0 0 1 44.67993 11.85v8a23.92677 23.92677 0 0 1 -8.89014 18.63 8.624 8.624 0 0 0 -3.10986 6.72c0 .22.01.43.03.64a8.81261 8.81261 0 0 0 6.36011 7.84c.75.21 1.48.45 2.2.73a29.76235 29.76235 0 0 1 19.40989 27.91z" fill="#f5a971"/><path d="m144 254.47v9.53h-80v-9.53a29.76758 29.76758 0 0 1 19.40991-27.91c.72-.27 1.45-.52 2.2-.73a8.81261 8.81261 0 0 0 6.36009-7.84l12.03 6.01 12.03-6.01a8.81261 8.81261 0 0 0 6.36011 7.84c.75.21 1.48.45 2.2.73a29.76235 29.76235 0 0 1 19.40989 27.91z" fill="#0e638b"/><path d="m91.97 217.99 12.03 6.01-8 12-12.59009-9.44c.72-.27 1.45-.52 2.2-.73a8.81261 8.81261 0 0 0 6.36009-7.84z" fill="#0a4b69"/><path d="m124.59009 226.56-12.59009 9.44-8-12 12.03-6.01a8.81261 8.81261 0 0 0 6.36011 7.84c.75003.21 1.48001.45 2.19998.73z" fill="#0a4b69"/><path d="m84 248v16h-8v-16a4 4 0 0 1 8 0z" fill="#0a4b69"/><path d="m132 248v16h-8v-16a4 4 0 0 1 8 0z" fill="#0a4b69"/><g fill="#537ec2"><path d="m232 292h-48a4 4 0 0 1 -2.82812-1.17139l-24-24a3.99991 3.99991 0 1 1 5.65624-5.65722l22.82911 22.82861h46.34277a4 4 0 0 1 0 8z"/><path d="m200 276h-8a4 4 0 0 1 0-8h8a4 4 0 0 1 0 8z"/><path d="m232 276h-16a4 4 0 0 1 0-8h16a4 4 0 0 1 0 8z"/><path d="m88 156a3.98686 3.98686 0 0 1 -2.82812-1.17139l-22.82911-22.82861h-38.34277a4 4 0 0 1 0-8h40a4 4 0 0 1 2.82812 1.17139l24 24a4 4 0 0 1 -2.82812 6.82861z"/><path d="m40 100h-16a4 4 0 0 1 0-8h16a4 4 0 0 1 0 8z"/><path d="m72 100h-16a4 4 0 0 1 0-8h16a4 4 0 0 1 0 8z"/><path d="m64 116h-40a4 4 0 0 1 0-8h40a4 4 0 0 1 0 8z"/><path d="m128 156a4 4 0 0 1 -2.82812-6.82861l24-24a4 4 0 0 1 2.82812-1.17139h40a4 4 0 0 1 0 8h-38.34277l-22.82911 22.82861a3.98686 3.98686 0 0 1 -2.82812 1.17139z"/><path d="m168 100h-16a4 4 0 0 1 0-8h16a4 4 0 0 1 0 8z"/><path d="m192 100h-8a4 4 0 0 1 0-8h8a4 4 0 0 1 0 8z"/><path d="m184 116h-32a4 4 0 0 1 0-8h32a4 4 0 0 1 0 8z"/></g><path d="m128 184v8a23.92677 23.92677 0 0 1 -8.89014 18.63 8.624 8.624 0 0 0 -3.10986 6.72s-2.25-16.47 3.87988-16.47c4.07007 0 8.1001-2.01 8.1001-11.94 0-7.71-10.21-9.11-13.49-3.58 1.55-4.06 4.24-13.74-5.24-13.74-9.41992 0-5.25 8.41-13.56006 8.41-10.33984 0-1.37988-6.8-12.36987-7.88a23.90084 23.90084 0 0 1 44.67995 11.85z" fill="#f57a08"/><path d="m272 228a4 4 0 0 1 0-8c14.668 0 29.80273-7.45947 37.17188-14.82861a3.99991 3.99991 0 0 1 5.65624 5.65722c-8.2705 8.27002-25.20019 17.17139-42.82812 17.17139z" fill="#e37066"/><path d="m309 352h-18l1-8h16z" fill="#ab2f10"/></g></svg>